<svg class="canvas" viewBox="0 0 1920 1080" preserveAspectRatio="xMaxYMid slice" xmlns="http://www.w3.org/2000/svg" version="1.1" xmlns:xlink="http://www.w3.org/1999/xlink" xmlns:svgjs="http://svgjs.dev/svgjs"><rect width="1920" height="1080" fill="hsl(182, 65%, 15%)"></rect><defs><linearGradient x1="0.5" y1="0" x2="0" y2="1" id="SvgjsLinearGradient1175"><stop stop-color="#28738a" offset="0"></stop><stop stop-color="#090614" offset="0.1"></stop></linearGradient><linearGradient x1="0.5" y1="0" x2="0" y2="1" id="SvgjsLinearGradient1176"><stop stop-color="#288a66" offset="0"></stop><stop stop-color="#060b14" offset="0.22857142857142856"></stop></linearGradient><linearGradient x1="0.5" y1="0" x2="0" y2="1" id="SvgjsLinearGradient1177"><stop stop-color="#28738a" offset="0"></stop><stop stop-color="#090614" offset="0.3571428571428571"></stop></linearGradient><linearGradient x1="0.5" y1="0" x2="0" y2="1" id="SvgjsLinearGradient1178"><stop stop-color="#c0f0f2" offset="0"></stop><stop stop-color="#4742d7" offset="0.48571428571428565"></stop></linearGradient><linearGradient x1="0.5" y1="0" x2="0" y2="1" id="SvgjsLinearGradient1179"><stop stop-color="#c0f2e9" offset="0"></stop><stop stop-color="#425bd7" offset="0.6142857142857142"></stop></linearGradient><linearGradient x1="0.5" y1="0" x2="0" y2="1" id="SvgjsLinearGradient1180"><stop stop-color="#c0f2e9" offset="0"></stop><stop stop-color="#425bd7" offset="0.7428571428571429"></stop></linearGradient><linearGradient x1="0.5" y1="0" x2="0" y2="1" id="SvgjsLinearGradient1181"><stop stop-color="#c0f0f2" offset="0"></stop><stop stop-color="#4742d7" offset="0.8714285714285713"></stop></linearGradient></defs><path d="M0,-575.2802824225616C53.72577089766063,-561.9479815668067,211.11762005608222,-527.5834225724918,322.3546253859638,-495.2864772880319C433.5916307158454,-462.9895320035719,555.4208567544798,-419.1855866737694,667.4220319792894,-381.4986107158018C779.423207204099,-343.8116347578342,892.0696723973881,-295.77555238530044,994.3616767348215,-269.1646215402262C1096.6536810722548,-242.55369069515203,1177.3345140748263,-249.97403114077062,1281.1740580038895,-221.83302564535666C1385.0136019329527,-193.6920201499427,1510.9279499765153,-131.41071243820826,1617.3989403092003,-100.31858856774241C1723.8699306418853,-69.22646469727657,1869.5664900515335,-46.12000011342506,1920,-35.280282422561584L 1920 1080 L 0 1080 Z" fill="url(&quot;#SvgjsLinearGradient1175&quot;)"></path><path d="M0,-365.26879592672276C54.07629652520285,-345.4731487008488,213.6354087313644,-283.3247810522176,324.4577791512171,-246.49491257147892C435.2801495710698,-209.66504409074025,561.911689002288,-168.18684797139946,664.9342225191162,-144.2895850422908C767.9567560359445,-120.39232211318216,845.4762964377469,-128.85922919119798,942.592980252187,-103.11133499682704C1039.709664066627,-77.36344080245611,1143.8208823796808,-25.597807905076863,1247.634325405757,10.19778012393477C1351.447768431833,45.9933681529464,1453.4126926429362,81.85900347139996,1565.4736384086434,111.66219317724276C1677.5345841743506,141.46538288308554,1860.9122730681072,176.1244641620334,1920,189.01691835899152L 1920 1080 L 0 1080 Z" fill="url(&quot;#SvgjsLinearGradient1176&quot;)"></path><path d="M0,-256.03101759577635C51.76000135521784,-246.24625509529983,219.90018758678093,-230.1533346712824,310.56000813130703,-197.32244259291733C401.2198286758331,-164.49155051455224,466.8881677406813,-81.89679428410071,543.9589232671565,-59.04566512558583C621.0296787936317,-36.19453596707095,683.1995179211021,-88.33756015772809,772.9845412901581,-60.21566764182805C862.769564659214,-32.093775125928005,988.1404036742503,65.74077682467768,1082.6690634814922,109.6856899698144C1177.197723288734,153.63060311495113,1240.4818207610417,177.24234788695966,1340.1565001336098,203.45381122899238C1439.831179506178,229.6652745710251,1584.0765564058354,248.77337006423406,1680.7171397169004,266.9544700220107C1777.3577230279654,285.13556997978736,1880.11952328615,304.94275415004535,1920,312.54041097565226L 1920 1080 L 0 1080 Z" fill="url(&quot;#SvgjsLinearGradient1177&quot;)"></path><path d="M0,-120.5567114360113C56.03691310249322,-105.65526666883581,202.66069209380063,-75.62725042119943,336.2214786149593,-31.14804283295839C469.782265136118,13.331164755282657,666.9976447099665,101.3017699054891,801.3647191269522,146.31853409343498C935.7317935439379,191.33529828138086,1023.9809888926612,213.56667849961718,1142.4239251168738,238.95254229471698C1260.8668613410864,264.3384060898168,1382.4263239917063,261.40906867629803,1512.0223364722274,298.63371686403383C1641.6183489527484,335.8583650517696,1852.0037227453713,435.0226456616153,1920,462.3004314211316L 1920 1080 L 0 1080 Z" fill="url(&quot;#SvgjsLinearGradient1178&quot;)"></path><path d="M0,22.070455810015872C40.61423261646683,38.686497663844584,151.07049163728078,97.739045494864,243.68539569880096,121.76670693298814C336.30029976032114,145.79436837111228,456.0405543763222,139.75330864123563,555.6894243691212,166.23642443876074C655.3382943619201,192.71954023628584,746.7139420376939,247.12232569421957,841.578615655595,280.66540171813875C936.443289273496,314.20847774205794,1038.9342998342397,339.2659190141376,1124.877466076528,367.49488058227587C1210.8206323188163,395.72384215041416,1276.0120125526832,416.8436614209093,1357.2376131093245,450.0391711269683C1438.4632136659657,483.2346808330273,1518.4373382679298,538.4722485143124,1612.2310694163757,566.6679388186299C1706.0248005648216,594.8636291229474,1868.7051782360627,610.4557505971659,1920,619.2133129528731L 1920 1080 L 0 1080 Z" fill="url(&quot;#SvgjsLinearGradient1179&quot;)"></path><path d="M0,81.5329576058839C34.646473411425745,101.34952781002703,131.74842950089848,168.09055090091266,207.87884046855447,200.43237883074266C284.00925143621043,232.77420676057267,366.85864055048404,259.68546002305106,456.78246580593594,275.5839251848639C546.7062910613879,291.48239034667677,671.01869392209,272.835817890506,747.4217920012659,295.82316980161977C823.8248900804417,318.81052171273353,838.8079125026558,385.5942273447595,915.2010542809909,413.5080366515464C991.594196059326,441.4218459583333,1124.2270437182908,440.59334749570013,1205.7806426712764,463.3060256423412C1287.334241624262,486.01870378898224,1328.7145754171268,516.6148761399794,1404.5226479989049,549.7841055313928C1480.330720580683,582.9533349228062,1574.716186161762,638.4584980736444,1660.6290781619446,662.3214019908214C1746.5419701621272,686.1843059079985,1876.7715130269908,687.8548411938497,1920,692.9615290344553L 1920 1080 L 0 1080 Z" fill="url(&quot;#SvgjsLinearGradient1180&quot;)"></path><path d="M0,210.71619575873103C75.83682909805144,231.8368405539486,300.881965269249,283.27993253867606,455.0209745883086,337.4400645300364C609.1599839073682,391.60019652139675,761.3868642764153,478.0913187015347,924.8340559143576,535.6769877068931C1088.2812475522999,593.2626567122514,1269.8431337350216,632.8284962678327,1435.704124415962,682.9540785621867C1601.5651150969024,733.0796608565407,1839.2840207359936,810.8510809878785,1920,836.4304814730168L 1920 1080 L 0 1080 Z" fill="url(&quot;#SvgjsLinearGradient1181&quot;)"></path></svg>